<?xml version="1.0" encoding="utf-8"?>
<svg viewBox="145.5882 191.5214 235.6202 82.306" xmlns="http://www.w3.org/2000/svg">
  <defs>
    <linearGradient gradientUnits="userSpaceOnUse" x1="421.324" y1="651.844" x2="421.324" y2="1111.234" id="gradient-1" gradientTransform="matrix(-0.074353, -0.02278, 0.011413, -0.097971, 134.64885, 153.67569)">
      <stop offset="0" style="stop-color: rgb(51, 8, 103);"/>
      <stop offset="1" style="stop-color: rgb(48, 207, 208);"/>
    </linearGradient>
    <linearGradient x1="0.852" x2="0.852" y1="-0.026" y2="0.974" id="gradient-5" gradientTransform="matrix(-0.785054, -0.496147, 0.78153, -0.793359, 1.002564, 1.281227)">
      <stop offset="0" style="stop-color: rgb(51, 8, 103);"/>
      <stop offset="1" style="stop-color: rgb(48, 207, 208);"/>
    </linearGradient>
    <linearGradient gradientUnits="userSpaceOnUse" x1="421.324" y1="651.844" x2="421.324" y2="1111.234" id="gradient-2" gradientTransform="matrix(-0.074353, -0.02278, 0.011413, -0.097971, 122.622879, 153.815292)">
      <stop offset="0" style="stop-color: rgb(51, 8, 103);"/>
      <stop offset="1" style="stop-color: rgb(48, 207, 208);"/>
    </linearGradient>
    <linearGradient gradientUnits="userSpaceOnUse" x1="41.597" y1="43.014" x2="41.597" y2="77.157" id="gradient-3" gradientTransform="matrix(0.999977, 0.005016, -0.009976, 1.065722, 0.430101, -3.035601)">
      <stop offset="0" style="stop-color: rgb(48, 207, 208);"/>
      <stop offset="1" style="stop-color: rgb(51, 8, 103);"/>
    </linearGradient>
    <linearGradient gradientUnits="userSpaceOnUse" x1="166.731" y1="51.316" x2="166.731" y2="100.592" id="gradient-0" gradientTransform="matrix(0.657898, -0.753107, 1.060959, 0.92683, 13.594846, 129.921951)">
      <stop offset="0" style="stop-color: rgb(48, 207, 208);"/>
      <stop offset="1" style="stop-color: rgb(51, 8, 103);"/>
    </linearGradient>
    <linearGradient gradientUnits="userSpaceOnUse" x1="247.078" y1="45.027" x2="247.078" y2="82.284" id="gradient-6" gradientTransform="matrix(0.927442, -0.373968, 0.403225, 1, 21.77153, 90.399147)">
      <stop offset="0" style="stop-color: rgb(20% 20% 20%)"/>
      <stop offset="1" style="stop-color: rgb(48, 207, 208);"/>
    </linearGradient>
    <linearGradient gradientUnits="userSpaceOnUse" x1="234.598" y1="57.295" x2="234.598" y2="91.504" id="gradient-4">
      <stop offset="0" style="stop-color: rgb(51, 8, 103);"/>
      <stop offset="1" style="stop-color: rgb(48, 207, 208);"/>
    </linearGradient>
    <linearGradient x1="0" x2="0" y1="0" y2="1" id="gradient-14">
      <stop offset="0" style="stop-color: rgb(48, 207, 208);"/>
      <stop offset="1" style="stop-color: rgb(28, 40, 108);"/>
    </linearGradient>
  </defs>
  <g transform="matrix(1, 0, 0, 1, 106.62733618359766, 170.05931344716714)">
    <polygon class="cls-8" points="107.719 38.255 98.522 38.255 81 92.485 90.154 92.485 91.263 89.128 101.243 58.311 107.719 38.255" style="fill-rule: nonzero; fill: url('#gradient-1'); paint-order: fill; fill-opacity: 0.82;"/>
    <path d="M 94.277 92.321 C 132.037 94.498 133.925 57.992 106.006 55.941" style="fill: url('#gradient-5'); paint-order: fill; fill-opacity: 0.82;"/>
    <polygon class="cls-8" points="95.693 38.395 86.496 38.395 68.974 92.625 78.128 92.625 79.237 89.268 89.217 58.451 95.693 38.395" style="fill-rule: nonzero; paint-order: fill; fill-opacity: 0.82; fill: url('#gradient-2');"/>
    <path d="M 37.77 61.36 Q 38.98 61.15 39.56 60.59 Q 40.13 60.04 40.13 58.45 L 40.13 52.35 Q 40.13 50.29 41.14 49.36 Q 42.16 48.43 44.92 48.44 L 44.94 49.07 Q 43.99 49.28 43.47 49.56 Q 42.95 49.84 42.71 50.24 Q 42.47 50.65 42.43 51.21 Q 42.39 51.77 42.39 52.55 L 42.39 57.09 Q 42.39 59.15 41.84 60.13 Q 41.29 61.12 39.87 61.56 L 39.87 61.64 Q 41.29 62.08 41.84 63.06 Q 42.39 64.04 42.39 66.11 L 42.39 70.65 Q 42.39 71.43 42.43 71.99 Q 42.47 72.55 42.71 72.95 Q 42.95 73.35 43.47 73.63 Q 43.99 73.92 44.92 74.12 L 44.94 74.75 Q 42.16 74.76 41.14 73.83 Q 40.13 72.9 40.13 70.84 L 40.13 64.74 Q 40.13 63.16 39.56 62.6 Q 38.98 62.05 37.79 61.83 Z" transform="matrix(1.766549, 0, 0, 2.41336, -25.823796, -82.844125)" style="fill: url('#gradient-3');"/>
    <path d="M 131.17 90.77 Q 129.5 90.77 128.41 89.62 Q 127.31 88.46 127.31 86.9 Q 127.31 85.31 128.41 84.17 Q 129.5 83.04 131.17 83.04 Q 132.85 83.04 133.94 84.17 Q 135.04 85.31 135.04 86.9 Q 135.04 88.46 133.94 89.62 Q 132.85 90.77 131.17 90.77 Z M 146.05 90.77 Q 143.21 90.77 141.1 89.87 Q 138.99 88.97 137.63 87.43 Q 136.26 85.89 135.58 83.98 Q 134.9 82.07 134.9 80.04 Q 134.9 78.01 135.58 76.1 Q 136.26 74.19 137.63 72.65 Q 138.99 71.11 141.1 70.21 Q 143.21 69.32 146.05 69.32 Q 149.02 69.32 150.93 70.15 Q 152.84 70.99 153.93 72.22 Q 155.02 73.45 155.55 74.7 Q 156.08 75.95 156.21 76.78 Q 156.35 77.62 156.35 77.62 L 149.52 77.62 Q 149.52 77.62 149.43 77.23 Q 149.33 76.84 149 76.34 Q 148.67 75.83 148.02 75.44 Q 147.38 75.05 146.29 75.05 Q 144.3 75.05 143.3 76.51 Q 142.31 77.97 142.31 80.04 Q 142.31 82.11 143.3 83.57 Q 144.3 85.03 146.29 85.03 Q 147.38 85.03 148.02 84.64 Q 148.67 84.25 149 83.75 Q 149.33 83.24 149.43 82.85 Q 149.52 82.46 149.52 82.46 L 156.35 82.46 Q 156.35 82.46 156.21 83.3 Q 156.08 84.14 155.55 85.36 Q 155.02 86.59 153.93 87.84 Q 152.84 89.09 150.93 89.93 Q 149.02 90.77 146.05 90.77 Z M 170.56 90.77 Q 167.01 90.77 164.47 89.28 Q 161.94 87.8 160.61 85.36 Q 159.29 82.93 159.29 80.04 Q 159.29 77.15 160.61 74.72 Q 161.94 72.28 164.47 70.8 Q 167.01 69.32 170.56 69.32 Q 174.14 69.32 176.66 70.8 Q 179.18 72.28 180.5 74.72 Q 181.83 77.15 181.83 80.04 Q 181.83 82.93 180.5 85.36 Q 179.18 87.8 176.66 89.28 Q 174.14 90.77 170.56 90.77 Z M 170.56 84.84 Q 172.35 84.84 173.38 83.45 Q 174.42 82.07 174.42 80.04 Q 174.42 78.01 173.38 76.63 Q 172.35 75.24 170.56 75.24 Q 168.76 75.24 167.73 76.63 Q 166.7 78.01 166.7 80.04 Q 166.7 82.07 167.73 83.45 Q 168.76 84.84 170.56 84.84 Z M 189.52 90.77 Q 187.25 90.77 185.6 89.85 Q 183.94 88.93 182.83 87.39 Q 181.72 85.85 181.17 83.94 Q 180.62 82.03 180.62 80.04 Q 180.62 78.05 181.17 76.14 Q 181.72 74.23 182.83 72.69 Q 183.94 71.15 185.6 70.23 Q 187.25 69.32 189.52 69.32 Q 191.04 69.32 192.13 69.73 Q 193.22 70.13 193.9 70.64 Q 194.59 71.15 194.92 71.56 Q 195.25 71.97 195.25 71.97 L 195.56 71.97 L 195.56 60.74 L 202.97 60.74 L 202.97 90.38 L 195.56 90.38 L 195.56 88.11 L 195.25 88.11 Q 195.25 88.11 194.92 88.52 Q 194.59 88.93 193.9 89.44 Q 193.22 89.95 192.13 90.36 Q 191.04 90.77 189.52 90.77 Z M 191.97 84.88 Q 193.26 84.88 194.12 84.16 Q 194.98 83.43 195.4 82.32 Q 195.83 81.21 195.83 80.04 Q 195.83 78.87 195.4 77.76 Q 194.98 76.65 194.12 75.93 Q 193.26 75.2 191.97 75.2 Q 190.69 75.2 189.83 75.93 Q 188.97 76.65 188.54 77.76 Q 188.11 78.87 188.11 80.04 Q 188.11 81.21 188.54 82.32 Q 188.97 83.43 189.83 84.16 Q 190.69 84.88 191.97 84.88 Z M 216.09 90.77 Q 213.24 90.77 211.15 89.87 Q 209.07 88.97 207.7 87.43 Q 206.34 85.89 205.67 83.96 Q 205.01 82.03 205.01 80 Q 205.01 78.05 205.65 76.14 Q 206.3 74.23 207.62 72.69 Q 208.95 71.15 211 70.23 Q 213.04 69.32 215.85 69.32 Q 218.89 69.32 221.2 70.6 Q 223.5 71.89 224.78 74.33 Q 226.07 76.76 226.07 80.24 L 226.07 81.91 L 212.46 81.91 Q 212.58 83.24 213.49 84.25 Q 214.41 85.27 216.09 85.27 Q 217.37 85.27 218.04 84.82 Q 218.7 84.37 218.93 83.92 Q 219.17 83.47 219.17 83.47 L 225.95 83.47 Q 225.95 83.47 225.76 84.21 Q 225.56 84.95 225.02 86.03 Q 224.47 87.1 223.38 88.19 Q 222.29 89.28 220.51 90.02 Q 218.74 90.77 216.09 90.77 Z M 212.42 77.82 L 219.01 77.82 Q 218.97 76.22 218.08 75.42 Q 217.18 74.62 215.7 74.62 Q 214.45 74.62 213.49 75.4 Q 212.54 76.18 212.42 77.82 Z" style="fill: url('#gradient-0'); text-transform: lowercase;"/>
    <path d="M 266.69 60.49 L 266.69 55.96 L 271.22 55.96 L 271.22 60.49 Z M 266.69 68.55 L 271.22 68.55 L 271.22 71.78 Q 271.22 73.75 270.88 74.89 Q 270.54 76.02 269.6 76.92 Q 268.66 77.83 267.21 78.34 L 266.32 76.47 Q 267.69 76.02 268.27 75.22 Q 268.85 74.41 268.88 73.07 L 266.69 73.07 Z" style="fill: url('#gradient-6');"/>
    <path d="M 238.4 76.07 Q 237.21 76.29 236.63 76.84 Q 236.06 77.4 236.06 78.98 L 236.06 85.08 Q 236.06 87.15 235.05 88.08 Q 234.04 89.01 231.27 88.99 L 231.25 88.36 Q 232.2 88.16 232.72 87.88 Q 233.24 87.6 233.48 87.19 Q 233.72 86.79 233.76 86.23 Q 233.8 85.67 233.8 84.89 L 233.8 80.35 Q 233.8 78.29 234.35 77.3 Q 234.9 76.32 236.32 75.88 L 236.32 75.8 Q 234.9 75.36 234.35 74.38 Q 233.8 73.39 233.8 71.33 L 233.8 66.79 Q 233.8 66.01 233.76 65.45 Q 233.72 64.89 233.48 64.49 Q 233.24 64.08 232.72 63.8 Q 232.2 63.52 231.27 63.32 L 231.25 62.69 Q 234.04 62.67 235.05 63.6 Q 236.06 64.53 236.06 66.6 L 236.06 72.7 Q 236.06 74.28 236.63 74.84 Q 237.21 75.39 238.42 75.61 Z" transform="matrix(1.877141, 0, 0, 2.399886, -188.067386, -115.97069)" style="fill: url('#gradient-4');"/>
    <line x1="53.006" y1="35.327" x2="260.326" y2="35.327" style="fill: url('#gradient-14');"/>
  </g>
</svg>